<svg xmlns="http://www.w3.org/2000/svg" width="771" height="150" viewBox="0 0 771 150" version="1.1"><path d="" stroke="none" fill="#000055" fill-rule="evenodd"/><path d="M 119 35.075 C 114.210 35.986, 103 40.891, 103 42.075 C 103 43.068, 106.302 43.739, 115.053 44.522 C 122.294 45.170, 122.656 45.101, 123.808 42.849 C 124.940 40.638, 124.978 40.630, 124.452 42.705 C 123.920 44.807, 124.236 44.926, 131.197 45.256 L 138.500 45.603 130.797 45.801 L 123.094 46 122.042 49.750 C 121.463 51.813, 120.699 55.920, 120.342 58.877 L 119.695 64.254 123.597 63.629 C 125.744 63.284, 128.175 63.055, 129 63.120 C 129.825 63.184, 134.325 63.232, 139 63.226 L 147.500 63.215 140 64.217 C 135.875 64.769, 132.380 65.328, 132.232 65.461 C 131.475 66.143, 134.222 80.519, 135.228 81.141 C 137.384 82.474, 137.901 80.989, 136.269 78.146 C 135.332 76.514, 134.951 74.571, 135.358 73.510 C 136.008 71.816, 136.258 71.865, 138.780 74.188 C 143.098 78.165, 146.262 80, 148.802 80 C 151.111 80, 151.146 79.863, 150.492 73.250 C 150.125 69.537, 149.387 64.700, 148.853 62.500 C 148.318 60.300, 147.666 57.600, 147.404 56.500 C 147.100 55.227, 147.511 55.525, 148.533 57.321 C 151.138 61.899, 152.978 69.122, 152.989 74.823 C 152.999 79.797, 153.271 80.387, 157.135 83.823 C 159.409 85.845, 161.951 89.075, 162.782 91 L 164.295 94.500 166.074 90.536 C 168.535 85.052, 169.362 76.412, 168.087 69.514 C 164.859 52.052, 151.219 38.198, 134.114 35.005 C 127.966 33.858, 125.335 33.870, 119 35.075 M 95.394 48.743 C 91.505 53.692, 89 57.689, 89 58.946 C 89 59.505, 90.237 60.237, 91.750 60.574 C 93.263 60.910, 95.275 61.396, 96.223 61.652 C 97.455 61.985, 98.833 60.676, 101.059 57.059 C 102.771 54.276, 104.333 52, 104.530 52 C 104.726 52, 103.975 54.062, 102.860 56.583 C 101.745 59.104, 101.120 61.453, 101.470 61.803 C 101.821 62.154, 105.147 62.612, 108.862 62.822 L 115.616 63.204 118.332 54.959 C 119.826 50.425, 120.925 46.616, 120.774 46.496 C 120.623 46.375, 115.515 45.986, 109.423 45.631 L 98.346 44.986 95.394 48.743 M 86.690 64.692 C 86.377 65.200, 85.811 67.941, 85.434 70.784 C 84.776 75.744, 84.858 75.995, 87.439 76.977 C 93.433 79.256, 94.524 78.564, 95.678 71.750 C 96.260 68.313, 96.593 65.335, 96.418 65.133 C 95.645 64.243, 87.204 63.861, 86.690 64.692 M 99.630 67.250 C 98.774 70.445, 98.857 78.797, 99.750 79.328 C 100.162 79.573, 103.763 80.095, 107.750 80.488 L 115 81.203 115 73.718 C 115 65.179, 114.845 65.039, 105.367 65.014 C 100.883 65.002, 100.157 65.285, 99.630 67.250 M 120.250 65.662 C 119.410 66.001, 119 68.564, 119 73.474 L 119 80.781 122.750 81.240 C 128.541 81.948, 128.909 81.544, 128.276 75.174 C 127.482 67.195, 126.497 64.984, 123.775 65.079 C 122.524 65.122, 120.938 65.385, 120.250 65.662 M 85.665 81.748 C 85.115 82.658, 88.531 93.953, 89.683 95.030 C 90.132 95.450, 92.478 96.116, 94.896 96.510 C 99.180 97.207, 99.273 97.165, 98.554 94.863 C 98.149 93.563, 97.191 90.296, 96.426 87.601 C 95.662 84.907, 94.915 82.607, 94.768 82.490 C 93.856 81.768, 86.039 81.130, 85.665 81.748 M 99.524 87.250 C 99.909 89.588, 100.809 92.924, 101.525 94.665 C 102.797 97.756, 102.996 97.837, 110.163 98.188 C 114.198 98.386, 117.661 98.451, 117.858 98.333 C 118.295 98.071, 116.106 88.361, 114.909 85.250 C 114.116 83.190, 113.401 83, 106.434 83 L 98.824 83 99.524 87.250 M 121.631 83.728 C 118.792 84.151, 118.770 84.209, 119.437 89.328 C 120.774 99.576, 120.183 99.001, 129.358 98.991 C 138.715 98.981, 148 98.023, 148 97.068 C 148 96.708, 145.437 95.543, 142.305 94.478 C 135.954 92.320, 131.279 88.865, 129.939 85.339 C 129.037 82.967, 128.033 82.773, 121.631 83.728 M 136.528 84.879 C 138.680 86.929, 144 88.563, 144 87.174 C 144 85.395, 140.241 83, 137.449 83 C 134.585 83, 134.575 83.019, 136.528 84.879 M 149.415 98.765 C 148.818 99.169, 147.784 100.400, 147.117 101.500 C 145.982 103.373, 145.946 103.348, 146.561 101.118 C 147.179 98.878, 147.019 98.772, 143.859 99.340 C 142.012 99.671, 136.306 100.248, 131.179 100.620 C 120.974 101.362, 121.439 100.932, 123.577 107.657 C 124.102 109.308, 123.994 109.292, 122.538 107.500 C 121.644 106.400, 120.667 104.520, 120.367 103.323 C 119.872 101.352, 119.068 101.116, 111.856 100.823 C 104.321 100.517, 103.919 100.608, 104.376 102.500 C 104.809 104.295, 104.699 104.269, 103.307 102.250 C 102.098 100.496, 100.792 100, 97.378 100 C 94.970 100, 93 100.408, 93 100.907 C 93 102.872, 103.851 111.470, 109.955 114.343 C 122.163 120.088, 137.716 119.048, 148.624 111.759 C 152.565 109.125, 153.597 107.829, 154.006 105 C 154.333 102.746, 154.799 101.945, 155.315 102.750 C 155.757 103.438, 156.879 103.982, 157.809 103.959 C 159.018 103.930, 158.514 103.076, 156.038 100.959 C 152.461 97.902, 151.272 97.508, 149.415 98.765" stroke="none" fill="#4c6c04" fill-rule="evenodd"/><path d="M 248.701 7.632 C 248.316 8.018, 248 38.408, 248 75.167 L 248 142 250.507 142 L 253.014 142 252.757 74.764 C 252.529 14.985, 252.328 7.494, 250.951 7.229 C 250.099 7.065, 249.087 7.246, 248.701 7.632 M 26.321 26.796 C 12.359 31.780, 5.695 41.847, 8.070 54.368 C 10.085 64.994, 16.152 71.589, 33.222 81.711 C 45.433 88.951, 50.481 93.971, 51.477 99.863 C 53.854 113.933, 39.206 121.876, 23.467 115.053 C 18.378 112.847, 14.362 108.120, 12.977 102.705 C 11.169 95.639, 11.159 95.623, 9.488 97.010 C 8.374 97.935, 8.030 100.286, 8.118 106.372 C 8.295 118.534, 8.841 120.171, 13.500 122.500 C 16.948 124.224, 19.500 124.500, 32 124.500 C 45.162 124.500, 46.936 124.285, 51.228 122.171 C 56.845 119.405, 64.399 111.353, 66.039 106.382 C 67.677 101.420, 66.833 89.373, 64.507 84.500 C 61.437 78.068, 52.414 70.048, 41.460 64.012 C 25.856 55.415, 21.086 49.822, 22.657 41.966 C 24.185 34.323, 35.675 30.025, 46.171 33.169 C 50.804 34.557, 57 40.972, 57 44.380 C 57 46.860, 59.205 49.462, 60.342 48.325 C 60.704 47.963, 61 43.231, 61 37.809 C 61 27.993, 60.988 27.946, 58.250 26.829 C 56.737 26.212, 50.100 25.536, 43.500 25.327 C 33.676 25.016, 30.561 25.282, 26.321 26.796 M 107.645 26.584 C 94.126 29.857, 80.207 40.309, 74.594 51.402 C 67.053 66.307, 67.109 85.242, 74.735 99.255 C 80.245 109.378, 93.480 118.797, 107.500 122.572 C 115.390 124.697, 136.514 125.549, 145.727 124.114 C 149.702 123.495, 155.440 122.059, 158.477 120.923 C 163.895 118.896, 164 118.781, 164 114.902 C 164 111.521, 163.315 110.263, 159.278 106.226 L 154.557 101.504 153.528 107.502 L 152.500 113.500 145.582 116.971 C 139.422 120.063, 137.615 120.484, 129.082 120.822 C 121.191 121.135, 118.363 120.817, 113.054 119.024 C 94.783 112.852, 83.319 98.005, 82.243 79.119 C 81.410 64.525, 85.916 52.996, 96.158 43.514 C 113.921 27.069, 140.422 27.155, 158.126 43.715 L 163 48.274 163.167 40.137 C 163.258 35.662, 163.371 31.216, 163.417 30.257 C 163.613 26.142, 121.051 23.339, 107.645 26.584 M 188.870 26.506 C 176.685 30.412, 169.443 39.228, 169.613 49.949 C 169.806 62.188, 176.969 71.257, 194.246 81.137 C 210.090 90.198, 215.108 96.577, 213.430 105.524 C 211.369 116.508, 197.513 120.910, 184.713 114.648 C 180.022 112.353, 178.733 111.105, 176.570 106.764 C 175.156 103.928, 174 100.646, 174 99.470 C 174 96.645, 172.994 95.760, 171.342 97.131 C 169.722 98.475, 169.462 114.454, 170.994 118.483 C 172.768 123.149, 177.708 124.435, 194 124.469 C 207.272 124.497, 208.903 124.300, 213.261 122.135 C 219.186 119.191, 226.239 111.485, 227.811 106.236 C 230.011 98.893, 229.338 90.995, 225.930 84.176 C 222.081 76.473, 215.761 70.842, 203.105 63.840 C 187.933 55.445, 182.848 49.522, 184.470 42.137 C 186.164 34.422, 198.208 29.834, 208.101 33.134 C 212.709 34.672, 217.764 39.629, 218.569 43.401 C 219.347 47.045, 220.867 49.201, 222.113 48.430 C 222.601 48.129, 223 43.397, 223 37.916 C 223 27.983, 222.991 27.947, 220.250 26.829 C 215.747 24.992, 194.282 24.772, 188.870 26.506 M 280.420 27.885 C 276.848 30.064, 274.510 34.914, 275.374 38.354 C 276.496 42.825, 279.450 45.128, 287.525 47.831 C 294.701 50.233, 295.532 50.775, 295.816 53.250 C 296.073 55.480, 295.601 56.203, 293.316 57.080 C 289.619 58.500, 284.724 57.652, 280.900 54.929 L 277.820 52.736 275.742 54.813 C 273.920 56.636, 273.839 57.101, 275.082 58.604 C 277.320 61.308, 284.098 63.954, 288.849 63.978 C 294.387 64.006, 299.118 61.764, 301.294 58.080 C 305.814 50.427, 301.437 44.695, 288.092 40.790 C 282.948 39.285, 280.944 36.884, 282.632 34.250 C 284.256 31.715, 293.116 31.890, 296.015 34.514 C 298.138 36.435, 298.166 36.431, 300.054 33.974 C 301.100 32.613, 301.966 31.245, 301.978 30.934 C 301.990 30.623, 300.251 29.385, 298.114 28.184 C 293.098 25.365, 284.783 25.225, 280.420 27.885 M 308.154 39.750 C 308.546 55.340, 309.759 58.808, 315.984 62.137 C 323.909 66.374, 333.958 63.558, 337.750 56.038 C 339.733 52.105, 340 50.061, 340 38.788 L 340 26 336.500 26 L 333 26 333 38.918 C 333 46.023, 332.720 52.565, 332.379 53.455 C 331.568 55.567, 326.801 58, 323.473 58 C 321.903 58, 319.670 56.824, 317.923 55.077 L 315 52.154 315 39.077 L 315 26 311.404 26 L 307.808 26 308.154 39.750 M 351.420 27.885 C 347.848 30.064, 345.510 34.914, 346.374 38.354 C 347.496 42.825, 350.450 45.128, 358.525 47.831 C 366.741 50.581, 368.388 52.370, 366.042 56 C 364.429 58.496, 355.800 57.968, 351.973 55.138 L 348.779 52.777 346.722 54.834 C 344.918 56.638, 344.839 57.102, 346.082 58.604 C 350.069 63.421, 361.229 65.409, 367.522 62.423 C 370.965 60.789, 374 55.905, 374 51.999 C 374 48.673, 368.060 43.347, 362.940 42.083 C 354.207 39.927, 351.168 36.912, 354.129 33.345 C 355.843 31.279, 364.270 32.029, 366.989 34.490 C 368.889 36.209, 369.029 36.188, 370.946 33.886 C 372.039 32.574, 372.948 31.245, 372.967 30.934 C 372.985 30.623, 371.251 29.385, 369.114 28.184 C 364.098 25.365, 355.783 25.225, 351.420 27.885 M 377 29 L 377 32 383 32 L 389 32 389 48.063 L 389 64.127 392.250 63.813 L 395.500 63.500 395.775 47.750 L 396.051 32 401.525 32 C 406.942 32, 407 31.968, 407 29 L 407 26 392 26 L 377 26 377 29 M 423.801 30.750 C 422.653 33.362, 418.903 41.662, 415.467 49.193 C 412.031 56.724, 409.470 63.137, 409.776 63.443 C 410.083 63.749, 411.531 64, 412.996 64 C 415.212 64, 416.051 63.162, 418 59 L 420.342 54 428.681 54 L 437.019 54 439.268 58.750 C 441.190 62.809, 441.988 63.546, 444.758 63.813 C 446.541 63.986, 448.005 63.761, 448.012 63.313 C 448.019 62.866, 444.320 54.288, 439.792 44.250 C 431.924 26.808, 431.434 26, 428.724 26 C 426.300 26, 425.584 26.690, 423.801 30.750 M 453 45.063 L 453 64.127 456.250 63.813 L 459.500 63.500 459.772 44.750 L 460.044 26 456.522 26 L 453 26 453 45.063 M 468 45 L 468 64 470.971 64 L 473.942 64 474.221 50.783 L 474.500 37.566 484.833 50.783 C 493.011 61.243, 495.670 64, 497.583 64 L 500 64 500 44.937 L 500 25.873 496.750 26.187 L 493.500 26.500 493.500 38.656 C 493.500 45.342, 493.233 50.647, 492.908 50.444 C 492.582 50.242, 488.082 44.660, 482.908 38.039 C 474.949 27.855, 473.076 26.001, 470.750 26.001 L 468 26 468 45 M 519.183 30.250 C 518.132 32.587, 514.511 40.622, 511.136 48.105 C 507.761 55.588, 505 62.226, 505 62.855 C 505 63.485, 506.337 64, 507.972 64 C 510.585 64, 511.204 63.396, 513.095 59 L 515.246 54 523.606 54 L 531.966 54 534.500 59 C 536.687 63.316, 537.442 64, 540.017 64 C 541.658 64, 543 63.580, 543 63.067 C 543 62.554, 539.340 54.004, 534.866 44.067 C 527.110 26.840, 526.601 26, 523.913 26 C 521.563 26, 520.776 26.707, 519.183 30.250 M 548 45 L 548 64 557.250 63.923 C 562.337 63.881, 568.252 63.317, 570.394 62.671 C 578.203 60.313, 580.955 51.694, 575.661 46.168 C 573.299 43.703, 573.125 43.141, 574.397 42.086 C 576.804 40.087, 577.306 35.491, 575.497 31.994 C 573.155 27.465, 568.764 26, 557.532 26 L 548 26 548 45 M 584.444 27.285 C 584.173 27.992, 584.074 36.429, 584.225 46.035 L 584.500 63.500 597.500 63.500 L 610.500 63.500 610.500 60.500 L 610.500 57.500 600.750 57.214 L 591 56.928 591 41.464 L 591 26 587.969 26 C 586.301 26, 584.715 26.578, 584.444 27.285 M 616 45 L 616 64 630 64 L 644 64 644 60.500 L 644 57 633.250 57.001 L 622.500 57.003 622.500 52.751 L 622.500 48.500 632 48 C 641.480 47.501, 641.501 47.494, 641.816 44.750 L 642.133 42 632.566 42 L 623 42 623 37 L 623 32 633.500 32 L 644 32 644 29 L 644 26 630 26 L 616 26 616 45 M 554.195 36.689 L 554.500 41.378 561 41.123 C 568.353 40.835, 570.578 39.439, 569.641 35.704 C 568.922 32.842, 566.632 32.033, 559.195 32.014 L 553.890 32 554.195 36.689 M 425.826 41.233 L 423.152 47.500 428.187 47.806 C 430.956 47.974, 433.421 47.913, 433.665 47.669 C 433.909 47.425, 432.846 44.467, 431.304 41.095 L 428.500 34.966 425.826 41.233 M 520.739 42 L 518.150 48 523.642 48 C 528.878 48, 529.102 47.895, 528.439 45.750 C 527.640 43.166, 524.115 36, 523.643 36 C 523.470 36, 522.162 38.700, 520.739 42 M 554 52.500 L 554 57 561.066 57 C 569.299 57, 572 55.888, 572 52.500 C 572 49.112, 569.299 48, 561.066 48 L 554 48 554 52.500 M 127.043 62.974 C 126.065 63.578, 126.015 64.550, 126.830 67.131 C 127.414 68.984, 128.100 73.200, 128.354 76.500 C 128.607 79.800, 129.147 83.400, 129.554 84.500 C 130.987 88.376, 135.285 91.862, 141.360 94.074 C 144.737 95.304, 147.927 96.691, 148.450 97.155 C 148.972 97.620, 150.055 98, 150.856 98 C 153.146 98, 158.825 102.779, 161.702 107.126 C 163.624 110.030, 164.558 110.744, 165.192 109.795 C 166.523 107.803, 165.018 95.413, 162.915 91.061 C 160.526 86.116, 154.568 81.184, 150.026 80.391 C 146.024 79.692, 142.724 77.879, 138.780 74.212 C 136.291 71.898, 136.001 71.835, 135.372 73.472 C 134.469 75.826, 137.406 81.185, 141.093 83.911 C 142.692 85.093, 144 86.505, 144 87.049 C 144 88.362, 138.963 87.132, 136.853 85.304 C 135.154 83.831, 133.004 76.870, 132.994 72.807 C 132.985 69.041, 131.060 63.237, 129.640 62.692 C 128.913 62.413, 127.744 62.540, 127.043 62.974 M 291.500 85.507 C 290.950 85.682, 289.297 86.089, 287.827 86.412 C 284.057 87.240, 279.271 91.549, 276.850 96.293 C 273.738 102.393, 274.535 111.605, 278.616 116.713 C 283.161 122.401, 287.256 124.168, 295.008 123.784 C 299.648 123.554, 302.591 122.798, 305.258 121.149 L 309 118.837 309 110.418 L 309 102 300.437 102 L 291.873 102 292.187 105.250 C 292.492 108.419, 292.630 108.508, 297.750 108.802 C 302.817 109.094, 303 109.207, 303 112.027 C 303 120.225, 286.104 119.572, 282.887 111.250 C 281.079 106.571, 282.298 98.247, 285.220 95.325 C 288.911 91.634, 295.703 91.037, 300.671 93.968 L 304.431 96.187 306.230 93.964 C 308.284 91.428, 307.474 89.788, 303.073 87.573 C 300.403 86.229, 293.247 84.952, 291.500 85.507 M 360.564 86.148 C 347.815 89.056, 341.908 104.707, 349.328 115.920 C 357.088 127.646, 375.741 126.429, 381.856 113.798 C 389.112 98.808, 376.555 82.501, 360.564 86.148 M 636.500 85.494 C 635.950 85.676, 634.251 86.101, 632.725 86.438 C 631.198 86.775, 628.163 88.664, 625.981 90.637 C 615.502 100.103, 618.472 118.084, 631.315 122.936 C 637.962 125.448, 649.059 123.248, 652.863 118.666 C 653.656 117.709, 653.987 114.584, 653.796 109.842 L 653.500 102.500 645.250 102.210 L 637 101.919 637 105.460 L 637 109 642 109 L 647 109 647 112.379 C 647 115.195, 646.497 115.966, 643.981 117.008 C 639.902 118.697, 633.353 117.680, 630.390 114.897 C 629.063 113.650, 627.490 110.819, 626.894 108.605 C 623.705 96.764, 635.457 87.713, 645.818 94.030 L 649.136 96.053 650.981 93.777 C 653.124 91.133, 652.455 89.896, 647.704 87.711 C 644.315 86.152, 638.178 84.938, 636.500 85.494 M 316 104.937 L 316 124 329 124 L 342 124 342 120.500 L 342 117 332.526 117 L 323.052 117 322.776 101.750 L 322.500 86.500 319.250 86.187 L 316 85.873 316 104.937 M 390.444 87.285 C 390.173 87.992, 390.074 96.429, 390.225 106.035 L 390.500 123.500 399.999 123.791 C 414.761 124.243, 421 120.885, 421 112.490 C 421 109.998, 420.235 108.144, 418.485 106.394 C 416.162 104.071, 416.086 103.716, 417.485 101.717 C 421.008 96.689, 418.803 90.466, 412.316 87.125 C 409.162 85.501, 391.078 85.633, 390.444 87.285 M 432.168 104.053 C 427.675 114.039, 424 122.611, 424 123.104 C 424 123.597, 425.375 124, 427.056 124 C 429.717 124, 430.370 123.418, 432.103 119.500 L 434.094 115 443 115 L 451.906 115 453.897 119.500 C 455.630 123.418, 456.283 124, 458.944 124 C 460.735 124, 461.990 123.483, 461.976 122.750 C 461.962 122.063, 458.377 113.625, 454.009 104 C 446.591 87.656, 445.877 86.480, 443.200 86.199 C 440.393 85.904, 440.170 86.264, 432.168 104.053 M 467 105 L 467 124 480 124 L 493 124 493 120.500 L 493 117 483.500 117 L 474 117 474 101.500 L 474 86 470.500 86 L 467 86 467 105 M 518.241 87.325 C 514.859 89.203, 512.800 92.708, 512.800 96.585 C 512.800 101.414, 515.188 104.548, 520.208 106.306 C 522.569 107.133, 526.300 108.431, 528.500 109.190 C 531.645 110.276, 532.566 111.137, 532.810 113.218 C 533.429 118.508, 524.418 119.570, 517.957 114.969 L 514.820 112.736 512.742 114.813 C 510.176 117.379, 511.201 118.951, 517.397 121.950 C 525.504 125.875, 535.376 124.041, 538.483 118.033 C 542.449 110.364, 537.854 103.757, 527 101.524 C 519.904 100.064, 517.300 96.843, 520.571 93.571 C 522.714 91.429, 527.777 91.597, 532.179 93.956 L 535.828 95.912 537.519 93.330 C 539.361 90.520, 539.319 90.455, 533.800 87.463 C 530.517 85.684, 521.343 85.603, 518.241 87.325 M 545.154 99.750 C 545.461 111.949, 545.756 113.911, 547.766 117.144 C 553.854 126.934, 570.090 126.247, 575.248 115.980 C 576.651 113.189, 576.997 109.866, 576.998 99.187 L 577 85.873 573.750 86.187 L 570.500 86.500 570 100.218 C 569.436 115.688, 568.949 116.795, 562.318 117.684 C 559.075 118.119, 557.833 117.761, 555.431 115.696 L 552.500 113.178 552.173 99.589 L 551.845 86 548.327 86 L 544.808 86 545.154 99.750 M 584.444 87.285 C 584.173 87.992, 584.074 96.429, 584.225 106.035 L 584.500 123.500 587.750 123.813 L 591 124.127 591 117.063 L 591 110 594.905 110 C 598.580 110, 599.118 110.414, 604 117 C 608.656 123.280, 609.539 124, 612.595 124 C 614.468 124, 616 123.498, 616 122.884 C 616 122.270, 613.769 118.928, 611.042 115.458 L 606.083 109.149 609.480 107.144 C 614.369 104.260, 615.960 98.632, 613.379 93.348 C 610.567 87.590, 606.538 86.003, 594.719 86.002 C 587.672 86, 584.799 86.359, 584.444 87.285 M 661 104.972 L 661 124 675.063 124 L 689.127 124 688.813 120.750 L 688.500 117.500 677.750 117.216 L 667 116.932 667 112.466 L 667 108 676.500 108 L 686 108 686 105 L 686 102 676.500 102 L 667 102 667 97 L 667 92 678.066 92 L 689.133 92 688.816 89.250 L 688.500 86.500 674.750 86.222 L 661 85.944 661 104.972 M 695 105 L 695 124 698 124 L 701 124 701 117 L 701 110 705.250 110.030 C 709.351 110.058, 709.675 110.303, 714.500 117 C 719.142 123.444, 719.769 123.943, 723.250 123.970 C 725.313 123.987, 727 123.755, 727 123.456 C 727 123.156, 724.751 119.941, 722.002 116.310 L 717.005 109.708 720.597 106.602 C 727.543 100.598, 725.922 90.954, 717.364 87.379 C 715.343 86.534, 710.371 86, 704.532 86 L 695 86 695 105 M 727.600 87.250 C 727.994 87.938, 731.283 92.775, 734.909 98 C 741.445 107.421, 741.504 107.567, 742 115.500 L 742.500 123.500 745.750 123.813 L 749 124.127 749 116.459 L 749 108.792 756.500 97.871 C 760.625 91.864, 764 86.736, 764 86.475 C 764 86.214, 762.435 86, 760.523 86 C 757.309 86, 756.619 86.608, 751.439 94 C 748.356 98.400, 745.703 102, 745.543 102 C 745.383 102, 742.889 98.400, 740 94 C 734.910 86.246, 734.627 86, 730.815 86 C 727.952 86, 727.077 86.340, 727.600 87.250 M 358.763 93.565 C 350.649 97.968, 351.184 112.487, 359.607 116.484 C 363.642 118.399, 366.358 118.399, 370.393 116.484 C 378.931 112.432, 379.339 97.812, 371.033 93.517 C 367.353 91.614, 362.322 91.634, 358.763 93.565 M 397 97.020 L 397 102.274 403.690 101.737 C 408.527 101.349, 410.744 100.703, 411.690 99.409 C 413.326 97.172, 413.321 96.821, 411.621 94.496 C 410.578 93.070, 408.627 92.507, 403.621 92.189 L 397 91.767 397 97.020 M 591 98.363 L 591 104.226 598.109 103.824 C 605.414 103.411, 608.022 101.889, 607.985 98.059 C 607.949 94.476, 606.138 93.506, 598.537 93.001 L 591 92.500 591 98.363 M 701.413 92.917 C 701.186 93.146, 701 95.733, 701 98.667 L 701 104 707.277 104 C 714.787 104, 718 102.222, 718 98.066 C 718 96.514, 717.438 94.781, 716.750 94.215 C 715.533 93.211, 702.236 92.086, 701.413 92.917 M 439.805 102.033 L 437.111 108 442.971 108 L 448.831 108 446.180 102 C 444.721 98.700, 443.296 96.015, 443.014 96.033 C 442.731 96.051, 441.287 98.751, 439.805 102.033 M 397 112.542 L 397 117.084 404.632 116.792 C 411.181 116.541, 412.469 116.191, 413.705 114.323 C 415.002 112.365, 414.938 111.938, 413.073 110.073 C 411.370 108.370, 409.749 108, 404 108 L 397 108 397 112.542" stroke="none" fill="#041c44" fill-rule="evenodd"/></svg>