<?xml version="1.0" standalone="no"?>
<!DOCTYPE svg PUBLIC "-//W3C//DTD SVG 20010904//EN"
 "http://www.w3.org/TR/2001/REC-SVG-20010904/DTD/svg10.dtd">
<svg version="1.0" xmlns="http://www.w3.org/2000/svg"
 width="771.000000pt" height="150.000000pt" viewBox="0 0 771.000000 150.000000"
 preserveAspectRatio="xMidYMid meet">

<g transform="translate(0.000000,150.000000) scale(0.100000,-0.100000)"
fill="#000000" stroke="none">
<path d="M2490 750 c0 -589 2 -670 15 -670 13 0 15 81 15 670 0 589 -2 670
-15 670 -13 0 -15 -81 -15 -670z"/>
<path d="M292 1236 c-119 -30 -199 -109 -209 -208 -13 -130 56 -225 247 -338
158 -94 190 -130 190 -218 0 -92 -67 -152 -171 -152 -125 0 -204 58 -227 166
-4 21 -13 39 -20 42 -19 6 -17 -212 3 -231 38 -38 284 -56 370 -27 127 42 206
161 191 288 -14 118 -92 208 -261 301 -151 84 -185 121 -185 199 0 47 25 83
75 107 43 20 127 23 178 6 45 -15 94 -70 103 -116 6 -36 20 -46 30 -22 3 8 1
54 -3 102 -8 87 -8 89 -38 97 -58 16 -218 18 -273 4z"/>
<path d="M1111 1235 c-254 -48 -413 -234 -414 -485 -1 -280 177 -453 506 -491
131 -15 309 4 395 41 36 16 42 23 42 49 0 21 -11 43 -35 70 -23 26 -32 42 -25
46 7 4 18 -1 25 -11 47 -65 46 -65 42 25 -3 63 1 99 15 144 43 138 5 292 -98
398 l-45 46 -52 -13 c-29 -7 -92 -17 -142 -21 l-90 -8 -11 -45 c-27 -110 -27
-110 6 -110 20 0 30 -5 30 -15 0 -10 -10 -15 -29 -15 -29 0 -30 -1 -36 -64 -4
-36 -4 -69 0 -75 3 -6 26 -11 51 -11 32 0 44 -4 44 -15 0 -11 -12 -15 -46 -15
l-47 0 7 -62 c4 -34 10 -66 13 -72 4 -5 66 -7 150 -3 80 3 146 1 149 -4 3 -5
-1 -9 -9 -9 -7 0 -24 -18 -36 -41 -25 -45 -37 -47 -21 -4 6 15 9 29 8 30 -4 4
-222 -16 -227 -21 -2 -2 6 -29 17 -61 12 -31 19 -59 17 -61 -2 -2 -17 20 -34
50 -16 29 -34 58 -38 64 -4 7 -39 14 -76 17 -56 4 -67 2 -63 -9 17 -42 15 -46
-11 -18 -19 22 -40 33 -65 36 -21 2 -38 1 -38 -3 0 -18 99 -94 158 -122 62
-30 75 -32 172 -32 95 0 111 3 167 29 35 16 68 35 74 42 17 21 29 17 29 -10 0
-71 -226 -138 -361 -106 -159 37 -289 151 -339 295 -42 121 -35 239 20 351 79
161 227 254 405 254 126 0 206 -29 306 -111 l46 -38 7 52 c12 104 10 116 -26
121 -18 3 -62 10 -98 16 -113 18 -308 21 -389 5z m386 -311 c17 -40 18 -41 58
-37 30 3 36 2 25 -6 -8 -6 -26 -11 -39 -11 -18 0 -22 -4 -16 -17 4 -10 9 -46
12 -80 5 -56 8 -63 27 -63 19 0 19 -1 -4 -13 -46 -24 -57 -13 -64 71 -3 42 -9
79 -14 83 -4 3 -42 2 -86 -4 -64 -8 -80 -7 -87 4 -7 11 8 15 78 21 47 4 88 10
90 12 2 2 -5 30 -17 62 -11 32 -20 61 -20 64 1 12 41 -49 57 -86z m-103 -243
c3 -5 -1 -12 -10 -15 -24 -9 -31 -7 -38 9 -4 11 1 15 19 15 13 0 26 -4 29 -9z"/>
<path d="M1915 1236 c-146 -36 -223 -126 -212 -251 9 -118 69 -189 247 -295
159 -94 190 -131 190 -224 0 -86 -70 -146 -171 -146 -125 0 -211 63 -228 169
-3 19 -12 36 -19 39 -9 3 -12 -24 -12 -113 l0 -116 36 -15 c60 -25 198 -37
281 -25 87 13 124 30 176 80 60 56 81 104 81 186 0 138 -72 232 -257 333 -152
83 -187 121 -187 201 0 76 68 124 176 123 92 -1 166 -54 180 -128 3 -19 11
-33 18 -31 12 4 10 186 -3 199 -9 10 -136 28 -196 27 -27 0 -72 -6 -100 -13z"/>
<path d="M2824 1226 c-40 -18 -64 -52 -64 -92 0 -52 32 -81 117 -106 57 -16
78 -27 86 -45 27 -60 -82 -88 -154 -39 l-35 24 -13 -21 c-12 -18 -11 -23 12
-43 14 -12 48 -27 74 -32 100 -22 173 20 173 99 0 55 -30 82 -119 109 -75 22
-94 41 -80 77 12 34 69 40 121 14 40 -20 44 -20 56 -4 19 26 15 33 -30 53 -50
23 -100 25 -144 6z"/>
<path d="M3523 1220 c-38 -23 -53 -48 -53 -88 0 -50 33 -80 116 -104 86 -25
105 -45 79 -84 -22 -34 -96 -34 -146 0 l-35 24 -13 -21 c-12 -18 -11 -23 12
-43 14 -12 48 -27 74 -32 100 -22 173 20 173 99 0 55 -30 82 -119 109 -77 23
-100 45 -81 80 16 31 72 36 122 11 40 -20 44 -20 56 -4 18 25 16 29 -31 52
-54 26 -112 27 -154 1z"/>
<path d="M4263 1228 c-8 -10 -129 -273 -160 -345 -3 -9 5 -13 24 -13 24 0 32
7 51 45 l22 45 89 0 89 0 19 -45 c15 -38 22 -45 46 -45 15 0 27 4 27 9 0 4
-36 86 -79 182 -59 130 -84 175 -98 177 -11 2 -24 -3 -30 -10z m58 -144 c17
-36 28 -68 26 -71 -3 -2 -32 -3 -66 -1 l-61 3 32 68 c17 37 33 67 35 67 2 0
18 -30 34 -66z"/>
<path d="M5202 1203 c-19 -37 -96 -205 -133 -290 l-18 -43 27 0 c23 0 32 8 50
45 l22 45 88 0 88 0 22 -45 c18 -38 26 -45 51 -45 l30 0 -83 183 c-66 147 -86
183 -103 185 -17 2 -27 -6 -41 -35z m71 -118 c15 -36 27 -68 27 -70 0 -3 -27
-5 -60 -5 -33 0 -60 4 -60 9 0 16 52 131 60 131 3 0 18 -29 33 -65z"/>
<path d="M3090 1103 c0 -147 12 -184 70 -217 43 -25 128 -26 165 -2 55 36 65
69 65 214 l0 132 -24 0 c-24 0 -24 0 -28 -129 -3 -121 -5 -131 -27 -155 -18
-19 -35 -26 -63 -26 -87 0 -108 40 -108 200 l0 110 -25 0 -25 0 0 -127z"/>
<path d="M3780 1205 c0 -24 3 -25 55 -25 l54 0 3 -152 3 -153 28 -3 27 -3 0
155 0 156 60 0 c57 0 60 1 60 25 l0 25 -145 0 -145 0 0 -25z"/>
<path d="M4540 1050 l0 -180 25 0 25 0 0 180 0 180 -25 0 -25 0 0 -180z"/>
<path d="M4680 1050 l0 -180 30 0 29 0 3 131 3 131 100 -129 c67 -84 109 -129
123 -131 22 -3 22 -3 22 177 l0 181 -25 0 -24 0 -3 -127 -3 -126 -99 126 c-86
110 -103 127 -128 127 l-28 0 0 -180z"/>
<path d="M5480 1050 l0 -180 105 0 c113 0 150 11 179 52 24 34 20 81 -10 111
-24 25 -25 27 -10 49 26 36 20 85 -13 119 -29 29 -31 29 -140 29 l-111 0 0
-180z m214 109 c32 -46 -6 -79 -91 -79 l-63 0 0 50 0 50 69 0 c60 0 72 -3 85
-21z m-4 -142 c15 -8 26 -23 28 -39 5 -40 -29 -58 -110 -58 l-68 0 0 55 0 55
63 0 c34 0 73 -6 87 -13z"/>
<path d="M5850 1050 l0 -180 125 0 125 0 0 25 c0 25 0 25 -95 25 l-95 0 0 155
0 155 -30 0 -30 0 0 -180z"/>
<path d="M6160 1050 l0 -181 138 3 c134 3 137 4 140 26 3 22 2 22 -107 22
l-111 0 0 55 0 55 95 0 c95 0 95 0 95 25 0 25 0 25 -95 25 l-95 0 0 50 0 50
105 0 105 0 0 25 0 25 -135 0 -135 0 0 -180z"/>
<path d="M1180 1140 c-53 -13 -130 -48 -130 -59 0 -5 37 -12 82 -16 l82 -7 29
33 c27 32 29 28 10 -18 -4 -10 18 -13 93 -12 55 1 113 5 129 9 30 7 29 7 -36
39 -52 25 -82 32 -145 36 -43 2 -95 0 -114 -5z"/>
<path d="M942 984 c-45 -61 -52 -84 -24 -84 9 0 26 -3 38 -6 16 -4 28 6 58 51
21 31 39 55 41 53 3 -2 -5 -28 -16 -57 -11 -30 -19 -55 -17 -56 2 -2 32 -5 68
-6 l64 -3 12 45 c6 24 17 57 23 73 6 16 10 30 9 31 -2 1 -50 5 -108 9 l-106 7
-42 -57z"/>
<path d="M866 819 c-13 -65 -9 -76 33 -86 l39 -10 6 41 c4 22 9 51 13 64 5 20
2 22 -40 22 -42 0 -45 -2 -51 -31z"/>
<path d="M1006 832 c-2 -4 -6 -32 -7 -62 l-3 -55 67 -9 c37 -5 69 -7 71 -5 2
2 6 34 8 72 l4 67 -67 0 c-37 0 -70 -3 -73 -8z"/>
<path d="M864 659 c25 -90 36 -107 72 -114 20 -3 38 -4 40 -2 2 2 -3 23 -11
47 -8 23 -15 51 -15 61 0 11 -6 19 -14 19 -7 0 -28 3 -46 6 -30 7 -32 6 -26
-17z"/>
<path d="M1005 618 c14 -83 16 -85 92 -91 37 -3 69 -4 70 -3 2 1 -3 31 -11 67
l-13 64 -72 3 -73 3 7 -43z"/>
<path d="M2865 627 c-71 -33 -124 -131 -110 -206 26 -140 162 -200 290 -128
l40 23 3 77 3 77 -81 0 c-79 0 -80 0 -80 -25 0 -23 3 -25 51 -25 l50 0 -3 -42
c-3 -40 -5 -43 -43 -54 -56 -16 -101 -7 -135 28 -53 52 -52 144 1 197 41 42
85 48 144 22 48 -21 75 -17 75 13 0 39 -147 69 -205 43z"/>
<path d="M3580 624 c-75 -33 -113 -91 -113 -174 0 -90 50 -158 135 -181 101
-27 199 32 227 137 39 147 -111 278 -249 218z m114 -48 c93 -39 112 -165 35
-231 -43 -35 -115 -35 -158 0 -76 65 -59 191 33 231 40 17 49 17 90 0z"/>
<path d="M4407 633 c-3 -5 -42 -89 -86 -186 l-79 -177 29 0 c26 0 32 6 49 45
l19 45 91 0 91 0 19 -45 c17 -39 23 -45 49 -45 35 0 41 -20 -66 215 -54 118
-73 151 -90 153 -12 2 -23 -1 -26 -5z m57 -145 c14 -35 26 -66 26 -70 0 -5
-27 -8 -60 -8 -33 0 -60 3 -60 8 0 13 54 132 61 132 3 0 18 -28 33 -62z"/>
<path d="M5194 626 c-40 -18 -64 -52 -64 -92 0 -52 32 -81 117 -106 57 -16 78
-27 86 -45 26 -58 -78 -87 -150 -42 -32 20 -36 20 -50 6 -14 -14 -14 -19 -3
-32 33 -40 118 -62 179 -45 51 14 81 51 81 102 0 49 -31 82 -91 98 -83 22
-109 38 -109 65 0 53 75 68 138 28 25 -16 52 -4 52 23 0 37 -131 65 -186 40z"/>
<path d="M6302 619 c-125 -62 -136 -250 -19 -327 55 -37 142 -38 205 -2 l42
24 0 78 0 78 -80 0 c-79 0 -80 0 -80 -25 0 -24 3 -25 55 -25 l55 0 0 -39 c0
-34 -4 -40 -32 -52 -40 -16 -96 -16 -127 0 -87 47 -78 208 14 247 46 19 61 18
113 -7 40 -20 45 -20 60 -6 14 15 14 18 -1 35 -40 44 -139 53 -205 21z"/>
<path d="M3160 450 l0 -180 130 0 130 0 0 25 0 25 -100 0 -100 0 0 155 0 155
-30 0 -30 0 0 -180z"/>
<path d="M3910 450 l0 -180 105 0 c123 0 159 13 181 66 18 42 10 78 -24 104
-23 18 -24 22 -10 38 25 27 31 61 17 93 -19 47 -54 59 -169 59 l-100 0 0 -180z
m201 120 c23 -13 25 -47 2 -72 -12 -14 -31 -18 -80 -18 l-63 0 0 50 0 50 61 0
c33 0 69 -5 80 -10z m24 -160 c8 -7 15 -23 15 -36 0 -37 -36 -54 -111 -54
l-67 0 -4 51 c-1 28 -1 53 2 56 10 10 149 -4 165 -17z"/>
<path d="M4670 450 l0 -180 130 0 130 0 0 25 0 25 -100 0 -100 0 0 155 0 155
-30 0 -30 0 0 -180z"/>
<path d="M5460 503 c0 -156 11 -186 83 -222 61 -30 122 -23 172 20 42 37 55
92 55 229 l0 100 -30 0 -30 0 0 -120 c0 -165 -14 -190 -101 -190 -29 0 -47 7
-64 25 -24 23 -25 31 -26 147 -1 68 -1 126 0 131 0 4 -12 7 -29 7 l-30 0 0
-127z"/>
<path d="M5850 451 l0 -181 31 0 31 0 -4 65 -3 65 46 0 c44 0 46 -2 93 -65 43
-58 51 -65 82 -65 l35 0 -51 66 c-27 37 -50 71 -50 75 0 4 9 10 20 14 62 20
80 113 31 167 l-29 33 -116 3 -116 4 0 -181z m208 113 c26 -18 29 -60 5 -86
-13 -14 -31 -18 -87 -18 l-71 0 2 57 c1 32 2 59 2 61 1 1 29 2 64 2 40 0 70
-5 85 -16z"/>
<path d="M6610 450 l0 -180 135 0 135 0 0 25 0 25 -105 0 -105 0 0 55 0 55 95
0 c95 0 95 0 95 25 0 25 0 25 -95 25 l-95 0 0 50 0 50 105 0 105 0 0 25 0 25
-135 0 -135 0 0 -180z"/>
<path d="M6950 450 l0 -180 30 0 30 0 0 65 0 65 44 0 c43 0 46 -2 92 -65 42
-58 52 -65 82 -65 38 0 38 -1 -25 82 -47 61 -50 68 -30 68 7 0 25 13 40 28 48
50 33 139 -30 171 -12 6 -69 11 -127 11 l-106 0 0 -180z m220 110 c11 -11 20
-29 20 -40 0 -41 -34 -60 -110 -60 l-70 0 0 60 0 60 70 0 c57 0 74 -4 90 -20z"/>
<path d="M7354 520 l76 -111 0 -69 c0 -68 1 -70 25 -70 24 0 25 2 25 68 0 67
1 70 58 153 32 46 66 96 76 112 l18 27 -33 0 c-31 0 -38 -7 -83 -75 -27 -42
-52 -78 -56 -80 -4 -3 -31 31 -60 75 -49 74 -55 80 -87 80 l-34 0 75 -110z"/>
</g>
</svg>
